<svg class="icon" viewBox="0 0 1024 1024" xmlns="http://www.w3.org/2000/svg" width="200" height="200"><path d="M363.11 585.626a281.446 281.446 0 10562.893 0 281.446 281.446 0 10-562.893 0z" fill="#C7ACEF"/><path d="M512 675.277c-90.06 0-163.277-73.267-163.277-163.277S421.94 348.723 512 348.723 675.277 421.99 675.277 512 602.06 675.277 512 675.277zm0-265.114c-56.166 0-101.837 45.67-101.837 101.837S455.833 613.837 512 613.837 613.837 568.167 613.837 512 568.167 410.163 512 410.163z" fill="#4F4F4F"/><path d="M512 969.78c-34.816 0-69.888-4.046-104.192-12.033-14.336-3.328-24.32-16.384-23.706-31.13.052-1.433.103-2.815.103-4.249 0-58.317-47.411-105.728-105.728-105.728-20.48 0-40.346 5.888-57.498 16.998a30.705 30.705 0 01-38.86-4.454c-49.46-51.405-86.631-114.33-107.52-181.862-4.353-14.132 1.996-29.39 15.103-36.301 18.228-9.575 33.178-24.115 43.213-42.138 28.365-50.944 10.035-115.456-40.909-143.82-1.484-.82-2.97-1.588-4.454-2.356a30.72 30.72 0 01-15.82-35.891c20.326-71.68 58.52-138.086 110.386-192.051 10.24-10.599 26.522-12.493 38.861-4.455a105.114 105.114 0 0057.498 17.05c58.317 0 105.728-47.411 105.728-105.728 0-1.434-.051-2.816-.103-4.25a30.787 30.787 0 0123.706-31.13 458.711 458.711 0 01211.251.666c14.183 3.43 24.013 16.333 23.552 30.925v.666a63.617 63.617 0 00-.102 3.123c0 58.317 47.411 105.728 105.728 105.728 19.917 0 39.373-5.58 56.217-16.23a30.771 30.771 0 0138.605 4.761c49.203 51.507 86.119 114.483 106.803 182.016a30.771 30.771 0 01-14.592 35.943c-17.408 9.523-31.744 23.808-41.42 41.164-28.365 50.944-10.036 115.456 40.908 143.821.461.256.973.512 1.434.768l1.229.666a30.725 30.725 0 0115.36 35.533c-20.122 71.68-58.01 138.137-109.722 192.256a30.766 30.766 0 01-38.605 4.761 105.498 105.498 0 00-56.217-16.23c-58.317 0-105.728 47.411-105.728 105.728 0 1.024.051 2.099.102 3.123v.666c.512 14.592-9.318 27.545-23.552 30.924A456.791 456.791 0 01512 969.78zm-67.584-67.278a395.643 395.643 0 00137.83-.46c10.036-82.637 80.64-146.842 165.94-146.842 22.732 0 45.004 4.608 65.69 13.466a397.645 397.645 0 0072.857-127.642c-66.611-49.152-88.013-141.62-46.643-215.808 11.059-19.814 25.907-37.069 43.673-50.79-16.025-43.162-39.833-83.661-69.837-119.04a166.62 166.62 0 01-65.69 13.465c-85.298 0-155.903-64.205-165.938-146.841-45.568-8.192-92.058-8.397-137.83-.461-9.882 82.79-80.59 147.251-166.042 147.251a167.16 167.16 0 01-67.636-14.285 397.732 397.732 0 00-73.062 126.925c30.771 21.914 53.043 53.402 63.54 90.266 12.236 42.956 6.962 88.064-14.746 127.078-11.52 20.634-27.085 38.4-45.722 52.378a399.913 399.913 0 0069.99 118.272 167.16 167.16 0 0167.636-14.285c85.452.051 156.16 64.512 165.99 147.353z" fill="#4F4F4F"/></svg>