<svg class="icon" viewBox="0 0 1024 1024" xmlns="http://www.w3.org/2000/svg" width="200" height="200"><path d="M806.502 104.243H393.216c-62.208 0-112.64 50.432-112.64 112.64v61.543h352.102c62.208 0 112.64 50.432 112.64 112.64V742.81h61.184c62.208 0 112.64-50.432 112.64-112.64V216.883c0-62.208-50.38-112.64-112.64-112.64z" fill="#FACC31"/><path d="M806.502 78.643H393.216c-76.237 0-138.24 62.003-138.24 138.24v35.943h-35.635c-76.237 0-138.24 62.003-138.24 138.24v413.286c0 76.237 62.003 138.24 138.24 138.24h413.286c76.237 0 138.24-62.003 138.24-138.24V768.41h35.635c76.237 0 138.24-62.004 138.24-138.24V216.883c0-76.237-62.003-138.24-138.24-138.24zm-86.784 725.76c0 47.975-39.065 87.04-87.04 87.04H219.341c-47.975 0-87.04-39.065-87.04-87.04V391.066c0-47.975 39.065-87.04 87.04-87.04h413.337c47.975 0 87.04 39.065 87.04 87.04v413.337zm173.824-174.182c0 47.974-39.065 87.04-87.04 87.04h-35.635V391.117c0-76.237-62.003-138.24-138.24-138.24H306.176v-35.943c0-47.974 39.066-87.04 87.04-87.04h413.286c47.975 0 87.04 39.066 87.04 87.04v413.287z" fill="#191919"/><path d="M570.778 537.6H280.576c-14.131 0-25.6-11.469-25.6-25.6s11.469-25.6 25.6-25.6h290.202c14.13 0 25.6 11.469 25.6 25.6s-11.47 25.6-25.6 25.6zm0 173.005H280.576c-14.131 0-25.6-11.469-25.6-25.6s11.469-25.6 25.6-25.6h290.202c14.13 0 25.6 11.469 25.6 25.6s-11.47 25.6-25.6 25.6z" fill="#191919"/></svg>