<svg class="icon" viewBox="0 0 1024 1024" xmlns="http://www.w3.org/2000/svg" width="200" height="200"><path d="M732.16 761.173H259.413c-37.546 0-68.266-30.72-68.266-68.266v-512c0-37.547 30.72-68.267 68.266-68.267H732.16c37.547 0 68.267 30.72 68.267 68.267V691.2c0 39.253-30.72 69.973-68.267 69.973z" fill="#333" opacity=".3"/><path d="M752.64 293.547H271.36c-13.653 0-25.6-11.947-25.6-25.6s11.947-25.6 25.6-25.6h481.28c13.653 0 25.6 11.946 25.6 25.6s-11.947 25.6-25.6 25.6zm0 209.92H271.36c-13.653 0-25.6-11.947-25.6-25.6s11.947-25.6 25.6-25.6h481.28c13.653 0 25.6 11.946 25.6 25.6s-11.947 25.6-25.6 25.6zM404.48 711.68H271.36c-13.653 0-25.6-11.947-25.6-25.6s11.947-25.6 25.6-25.6h133.12c13.653 0 25.6 11.947 25.6 25.6s-11.947 25.6-25.6 25.6z" fill="#333"/><path d="M658.773 989.867h-471.04c-47.786 0-87.04-40.96-87.04-92.16V126.293c0-51.2 39.254-92.16 87.04-92.16h648.534c47.786 0 87.04 40.96 87.04 92.16V711.68c0 13.653-11.947 25.6-25.6 25.6H720.213c-20.48 0-35.84 18.773-35.84 40.96v186.027c0 13.653-11.946 25.6-25.6 25.6zM187.733 85.333c-18.773 0-35.84 18.774-35.84 40.96V896c0 22.187 15.36 40.96 35.84 40.96h445.44V776.533c0-51.2 39.254-92.16 87.04-92.16h151.894v-558.08c0-22.186-17.067-40.96-35.84-40.96H187.733z" fill="#333"/><path d="M665.6 989.867c-6.827 0-13.653-1.707-18.773-6.827-10.24-10.24-10.24-25.6 0-35.84L803.84 786.773c10.24-10.24 25.6-10.24 35.84 0 10.24 10.24 10.24 25.6 0 35.84L682.667 983.04c-5.12 5.12-10.24 6.827-17.067 6.827z" fill="#333"/></svg>