<svg class="icon" viewBox="0 0 1024 1024" xmlns="http://www.w3.org/2000/svg" width="200" height="200"><path d="M0 139.636a46.545 46.545 0 0146.545-46.545h354.898a51.2 51.2 0 0147.057 31.034l25.1 58.554 503.855.012A46.545 46.545 0 011024 229.236v546.91a46.545 46.545 0 01-46.545 46.545H46.545A46.545 46.545 0 010 776.145V139.636z" fill="#FFA000"/><path d="M46.545 276.945h930.91q46.545 0 46.545 46.546v558.545q0 46.546-46.545 46.546H46.545Q0 928.582 0 882.036V323.491q0-46.546 46.545-46.546z" fill="#FFCA28"/></svg>