<svg class="icon" viewBox="0 0 1024 1024" xmlns="http://www.w3.org/2000/svg" width="200" height="200"><path d="M979.096 980.95H44.904C19.83 980.95 0 960.443 0 935.84V195.791c0-25.185 20.411-45.112 44.904-45.112h934.192c25.075 0 44.904 20.508 44.904 45.112v740.047c0 25.185-20.41 45.111-44.904 45.111z" fill="#FFA000"/><path d="M512 344.41H0V112.903a45.098 45.098 0 0144.904-45.25h350.471c19.83 0 37.32 12.925 43.146 32.312l73.48 244.459z" fill="#FFA000"/><path d="M909.7 925.6H114.3c-25.184 0-45.11-20.135-45.11-44.282v-603.33c0-24.728 20.493-44.28 45.11-44.28h795.4c25.185 0 45.111 20.133 45.111 44.28v603.33c.567 24.147-19.926 44.281-45.111 44.281z" fill="#FFF"/><path d="M979.096 980.95H44.904C19.83 980.95 0 960.803 0 936.628V361.057c0-24.756 20.411-44.323 44.904-44.323h934.192c25.075 0 44.904 20.148 44.904 44.323v575.57c0 24.757-20.41 44.323-44.904 44.323z" fill="#FFCA28"/><path d="M364.461 485.708H106.635c-12.717 0-23.608-9.686-23.608-22.196 0-11.97 10.296-22.223 23.608-22.223h257.217c12.717 0 23.608 9.686 23.608 22.223 0 11.956-10.296 22.224-22.999 22.224zm0 149.297H106.635c-12.717 0-23.608-9.687-23.608-22.224s10.296-22.224 23.608-22.224h257.217c12.717 0 23.608 9.687 23.608 22.224s-10.296 22.224-22.999 22.224z" fill="#FFF8E1"/></svg>