<svg class="icon" viewBox="0 0 1024 1024" xmlns="http://www.w3.org/2000/svg" width="200" height="200"><path d="M413.082 626.483a182.016 182.016 0 10364.032 0 182.016 182.016 0 10-364.032 0z" fill="#FFBE0A"/><path d="M515.635 930.048a105.82 105.82 0 01-44.851-9.984c-102.298-47.77-340.275-178.688-340.275-362.394V290.1c0-52.788 37.99-97.025 90.317-105.166 61.132-9.523 152.934-31.334 242.841-81.305 32.461-18.023 71.168-18.125 103.578-.307 94.003 51.814 183.859 73.267 242.739 82.176 52.326 7.936 90.317 52.172 90.317 105.164V557.67c0 185.959-237.978 315.546-340.327 362.599a105.037 105.037 0 01-44.339 9.779zm.154-768.307c-5.94 0-11.827 1.485-17.255 4.505-99.225 55.143-199.782 79.104-266.7 89.498-17.152 2.662-29.645 17.1-29.645 34.355v267.623c0 146.483 228.761 264.704 298.905 297.42 9.165 4.301 19.712 4.301 28.928.103 70.042-32.205 298.599-148.941 298.599-297.523v-267.06c0-17.305-12.34-31.692-29.389-34.304-64.614-9.779-163.328-33.382-266.598-90.265a35.282 35.282 0 00-16.845-4.352z" fill="#34332E"/><path d="M586.7 609.638h-35.583c0-16.844-.051-32.307 0-44.697 64.358-15.616 112.333-73.677 112.333-142.797 0-81.05-65.946-146.944-146.944-146.944-81.05 0-146.944 65.946-146.944 146.944 0 68.198 46.745 125.696 109.824 142.182-.103 27.034.05 73.37.358 154.83.051 19.762 16.128 35.686 35.84 35.686h.154c19.814-.103 35.788-16.18 35.686-35.994l-.154-37.58h35.43c19.815 0 35.84-16.026 35.84-35.84s-16.025-35.79-35.84-35.79zM441.19 422.144c0-41.523 33.792-75.264 75.264-75.264 41.524 0 75.264 33.792 75.264 75.264s-33.792 75.264-75.264 75.264-75.264-33.74-75.264-75.264z" fill="#34332E"/></svg>