<svg class="icon" viewBox="0 0 1024 1024" xmlns="http://www.w3.org/2000/svg" width="200" height="200"><path d="M536.381 288.378v369.908a24.381 24.381 0 01-48.762 0V288.378l-96.305 96.353a24.381 24.381 0 01-34.474-34.474l137.898-137.899a24.283 24.283 0 0134.524 0L667.16 350.257a24.381 24.381 0 01-34.474 34.474l-96.305-96.353zM97.524 731.428a24.381 24.381 0 0148.762 0v97.524a24.381 24.381 0 0024.38 24.381h682.667a24.381 24.381 0 0024.381-24.38v-97.524a24.381 24.381 0 0148.762 0v97.523a73.143 73.143 0 01-73.143 73.143H170.667a73.143 73.143 0 01-73.143-73.143V731.43z" fill="#9DA7B2"/></svg>