<svg class="icon" viewBox="0 0 1024 1024" xmlns="http://www.w3.org/2000/svg" width="200" height="200"><path d="M0 0h1024v1024H0z" fill="none"/><path d="M938.667 384V142.08c0-29.995-24.534-56.747-53.675-56.747H139.008c-29.141 0-53.675 26.752-53.675 56.747V384h853.334z" fill="#55C7F7"/><path d="M85.333 640v241.92c0 29.995 24.32 56.747 53.248 56.747H885.42c28.928 0 53.248-26.752 53.248-56.747V640H85.333z" fill="#7ECF3B"/><path d="M425.045 85.333H594.86v853.334H425.045z" fill="#FDAF42"/><path d="M85.333 384h853.334v256H85.333z" fill="#F95F5D"/><path d="M640 469.333v85.334H384v-85.334h256m28.245-42.666h-312.49c-5.376 0-14.422 3.712-14.422 9.941v150.784c0 3.712 5.376 9.941 14.422 9.941h312.49c5.376 0 14.422-3.712 14.422-9.941V436.608c-3.542-7.424-9.046-9.941-14.422-9.941z" fill="#FFF"/></svg>