<svg viewBox="0 0 1152 1024" xmlns="http://www.w3.org/2000/svg" width="337.5" height="300"><path d="M396.899 1023.104a21.31 21.31 0 0 1-12.57-4.89c-6.77-7.017-6.77-18.135 0-25.152l39.424-40.499c5.317-8.196 16.271-10.53 24.468-5.213 8.196 5.317 10.53 16.271 5.213 24.468a17.698 17.698 0 0 1-4.951 5.04l-39.424 40.499a21.414 21.414 0 0 1-12.16 5.76v-.013zM81.865 752.627a21.317 21.317 0 0 1-12.57-4.902c-6.77-7.017-6.77-18.135 0-25.152l67.354-67.571c6.753-7.138 18.014-7.451 25.152-.698s7.451 18.014.698 25.152a17.67 17.67 0 0 1-.698.698L94.23 747.725a17.248 17.248 0 0 1-12.365 4.902zm404.992 176.704a21.312 21.312 0 0 1-12.582-4.902c-6.77-7.017-6.77-18.135 0-25.152l67.994-67.994c7.139-6.753 18.399-6.44 25.152.699 6.489 6.86 6.489 17.593 0 24.453l-67.354 67.558a18.326 18.326 0 0 1-12.57 4.902l-.64.436zm407.104-717.67a16.849 16.849 0 0 1-12.57-5.76c-6.771-7.017-6.771-18.135 0-25.152l50.086-49.242c7.138-6.753 18.399-6.44 25.152.698 6.489 6.86 6.489 17.594 0 24.454l-50.086 50.099a15.984 15.984 0 0 1-12.582 4.903z" fill="#3FA9F5" opacity=".2" /><path d="M1083.875 437.594a16.849 16.849 0 0 1-12.57-5.76c-6.771-7.017-6.771-18.135 0-25.152l50.086-49.229c7.138-6.753 18.399-6.44 25.152.698 6.489 6.86 6.489 17.594 0 24.454l-50.086 49.229a15.143 15.143 0 0 1-12.582 5.76z" fill="#FFF" /><path d="M614.742 211.661c-217.177-2.234-395.044 172.012-397.278 389.189-2.234 217.177 172.012 395.044 389.189 397.278s395.044-172.012 397.278-389.189c.015-1.414.021-2.828.021-4.242 1.055-216.01-173.199-391.978-389.21-393.036z" fill="#3FA9F5" opacity=".1" /><path d="M90.39 63.949C40.481 63.937.012 104.386.001 154.295s40.438 90.378 90.347 90.389h.043c49.909 0 90.368-40.459 90.368-90.368s-40.46-90.367-90.369-90.367zM413.321 0c-26.248.109-47.438 21.475-47.329 47.723.001.22.003.441.007.661-.123 26.36 20.966 47.922 47.322 48.384 26.248-.116 47.432-21.488 47.316-47.736a46.665 46.665 0 0 0-.007-.648C461.104 22.14 440.213.481 413.969.007a44.977 44.977 0 0 0-.635-.007h-.013z" fill="#3FA9F5" opacity=".2" /><path d="M866.044 690.816c-76.518 173.926-204.416 143.014-248.55 296.486 217.296-2.33 391.561-180.371 389.231-397.667a393.47 393.47 0 0 0-128.111-286.326c-58.842 136.192 63.514 213.581-12.582 387.507h.012z" fill="#3FA9F5" opacity=".1" /><path d="M572.323 988.365c-226.739-1.408-409.549-186.112-408.602-412.864.007-10.653 8.648-19.284 19.302-19.277 10.644.007 19.271 8.634 19.277 19.277-1.062 205.491 164.531 372.992 370.022 374.285a353.409 353.409 0 0 0 157.094-34.739c9.415-5.179 21.245-1.745 26.424 7.67s1.745 21.245-7.67 26.424c-.419.231-.847.446-1.283.645a394.098 394.098 0 0 1-174.564 38.579zm237.017-80.128a20.042 20.042 0 0 1-15.347-7.68c-6.36-8.325-4.768-20.23 3.557-26.59l.078-.059a355.427 355.427 0 0 0 38.579-33.894c8.01-6.937 20.128-6.068 27.065 1.943 6.247 7.213 6.244 17.919-.006 25.129a426.171 426.171 0 0 1-42.624 37.734 18.546 18.546 0 0 1-11.302 3.405v.012zm92.519-103.386a21.305 21.305 0 0 1-10.662-2.982c-8.943-5.969-11.498-17.979-5.76-27.072 109.373-175.131 56.065-405.767-119.066-515.14a373.862 373.862 0 0 0-194.048-56.738c-122.91.152-237.575 61.851-305.421 164.339a352.766 352.766 0 0 0-48.179 99.533c-3.3 10.085-14.15 15.585-24.235 12.286-9.913-3.244-15.428-13.804-12.424-23.793a388.361 388.361 0 0 1 53.286-110.413c75.072-112.735 201.529-180.48 336.973-180.519 228.12 2.947 410.658 190.263 407.711 418.383a413.09 413.09 0 0 1-62.623 213.387 18.97 18.97 0 0 1-15.552 8.742v-.013z" fill="#409EFF" /><path d="M803.593 465.728 543.331 729.395c-12.532 12.771-33.043 12.964-45.814.432-.146-.143-.29-.287-.432-.432L346.812 577.626c-12.227-13.38-11.293-34.139 2.087-46.366 12.496-11.419 31.626-11.462 44.172-.098L520.956 659.06l237.235-238.72c12.846-12.588 33.401-12.588 46.246 0 12.312 12.161 12.434 32.001.272 44.313-.362.367-.735.726-1.116 1.075z" fill="#409EFF" /></svg>